<svg width="43" height="43" viewBox="0 0 43 43" fill="none" xmlns="http://www.w3.org/2000/svg">
<path d="M25.4667 23.7802C25.247 23.5608 24.9492 23.4375 24.6386 23.4375C24.3281 23.4375 24.0302 23.5608 23.8105 23.7802L19.9511 27.6376L15.3593 23.0458L19.2167 19.1865C19.4237 18.9643 19.5364 18.6705 19.5311 18.3669C19.5257 18.0633 19.4027 17.7736 19.188 17.5589C18.9733 17.3442 18.6836 17.2212 18.38 17.2159C18.0765 17.2105 17.7826 17.3232 17.5605 17.5302L13.7011 21.3876L9.84173 17.5302C9.61958 17.3232 9.32576 17.2105 9.02217 17.2159C8.71857 17.2212 8.42891 17.3442 8.2142 17.5589C7.99949 17.7736 7.8765 18.0633 7.87115 18.3669C7.86579 18.6705 7.97848 18.9643 8.18548 19.1865L9.69915 20.7021L4.87103 25.5322C3.77257 26.631 3.15548 28.1211 3.15548 29.6748C3.15548 31.2284 3.77257 32.7185 4.87103 33.8173L6.19525 35.1435L0.372982 40.9677C0.257846 41.075 0.165499 41.2044 0.101449 41.3481C0.0373992 41.4919 0.0029586 41.6471 0.000182377 41.8044C-0.00259385 41.9618 0.0263509 42.118 0.08529 42.264C0.144229 42.4099 0.231955 42.5424 0.343234 42.6537C0.454514 42.765 0.587067 42.8527 0.732986 42.9117C0.878905 42.9706 1.0352 42.9995 1.19255 42.9968C1.3499 42.994 1.50507 42.9596 1.64882 42.8955C1.79257 42.8315 1.92195 42.7391 2.02923 42.624L7.85345 36.8017L9.17962 38.1259C10.2784 39.2244 11.7685 39.8415 13.3222 39.8415C14.8759 39.8415 16.366 39.2244 17.4648 38.1259L22.2949 33.2978L23.8105 34.8115C24.0326 35.0185 24.3265 35.1312 24.63 35.1258C24.9336 35.1204 25.2233 34.9975 25.438 34.7828C25.6527 34.568 25.7757 34.2784 25.7811 33.9748C25.7864 33.6712 25.6737 33.3774 25.4667 33.1552L21.6093 29.2958L25.4667 25.4365C25.6862 25.2167 25.8095 24.9189 25.8095 24.6083C25.8095 24.2978 25.6862 23.9999 25.4667 23.7802ZM15.8085 36.4755C15.4821 36.8021 15.0944 37.0612 14.6678 37.2379C14.2412 37.4147 13.784 37.5056 13.3222 37.5056C12.8604 37.5056 12.4032 37.4147 11.9766 37.2379C11.55 37.0612 11.1623 36.8021 10.8359 36.4755L6.52728 32.1611C6.2007 31.8346 5.94164 31.447 5.76489 31.0204C5.58814 30.5938 5.49717 30.1365 5.49717 29.6748C5.49717 29.213 5.58814 28.7557 5.76489 28.3291C5.94164 27.9025 6.2007 27.5149 6.52728 27.1884L11.3574 22.3603L20.6367 31.6396L15.8085 36.4755ZM42.6542 0.342719C42.4345 0.123265 42.1367 0 41.8261 0C41.5156 0 41.2177 0.123265 40.998 0.342719L35.1738 6.16498L33.8476 4.84077C32.7488 3.7423 31.2587 3.12522 29.705 3.12522C28.1513 3.12522 26.6612 3.7423 25.5624 4.84077L20.7324 9.66889L19.2167 8.15522C18.9946 7.94822 18.7008 7.83553 18.3972 7.84088C18.0936 7.84624 17.8039 7.96923 17.5892 8.18393C17.3745 8.39864 17.2515 8.68831 17.2461 8.9919C17.2408 9.2955 17.3535 9.58932 17.5605 9.81147L33.1855 25.4365C33.4076 25.6435 33.7015 25.7562 34.005 25.7508C34.3086 25.7454 34.5983 25.6225 34.813 25.4078C35.0277 25.193 35.1507 24.9034 35.1561 24.5998C35.1614 24.2962 35.0487 24.0024 34.8417 23.7802L33.3281 22.2646L38.1562 17.4345C39.2547 16.3357 39.8717 14.8456 39.8717 13.2919C39.8717 11.7382 39.2547 10.2482 38.1562 9.14936L36.832 7.82319L42.6542 1.99897C42.8737 1.77924 42.997 1.48139 42.997 1.17084C42.997 0.860296 42.8737 0.562446 42.6542 0.342719ZM36.4999 15.7724L31.6699 20.6064L22.3906 11.3271L27.2187 6.49702C27.5452 6.17044 27.9328 5.91138 28.3594 5.73463C28.786 5.55788 29.2432 5.46691 29.705 5.46691C30.1668 5.46691 30.624 5.55788 31.0507 5.73463C31.4773 5.91138 31.8649 6.17044 32.1913 6.49702L36.4999 10.8056C36.8265 11.1321 37.0856 11.5197 37.2623 11.9463C37.4391 12.3729 37.53 12.8302 37.53 13.2919C37.53 13.7537 37.4391 14.211 37.2623 14.6376C37.0856 15.0642 36.8265 15.4518 36.4999 15.7783V15.7724Z" fill="white"/>
</svg>
