<svg width="41" height="46" viewBox="0 0 41 46" fill="none" xmlns="http://www.w3.org/2000/svg">
<path d="M35.3333 14.8304V13.3732H1.68254V14.8304H0V38.1456H1.68254V39.6028H11.7778V45.4316H13.4603V43.9744H15.1429V42.5172H16.8254V41.06H20.1905V39.6028H35.3333V38.1456H37.0159V14.8304H35.3333ZM33.6508 36.6884H3.36508V16.2876H33.6508V36.6884Z" fill="white"/>
<path d="M26.6059 0.679018V1.35804H25.9948H25.3836V1.96917V2.58029H24.7046H24.0256V3.87044V5.16058H23.4145H22.8033V7.74088V10.3212H21.5268H20.2366L20.1959 10.9595L20.1551 11.6113L19.5169 11.6521L18.865 11.6928V20.1127V28.5191H29.8652H40.8654V20.1127V11.6928L40.2271 11.6521L39.5753 11.6113L39.5345 10.9595L39.4938 10.3212H38.2036H36.9271V7.74088V5.16058H36.3159H35.7184L35.6777 3.8976L35.6369 2.64819L34.9986 2.60745L34.3468 2.56671V1.95559V1.35804H33.7356H33.1245V0.679018V-7.62939e-06H29.8652H26.6059V0.679018ZM31.8751 3.28647L31.9159 3.93834H32.527H33.1245V4.54946V5.16058H33.7356H34.3468V6.40999C34.3468 7.1026 34.3875 8.27052 34.4418 8.99029L34.5233 10.3212H29.8788H25.2478L25.275 7.76804L25.3157 5.22849L25.9676 5.18774L26.6059 5.147V4.53588V3.93834H27.217H27.8281V3.35438C27.8281 3.02844 27.8689 2.71609 27.9232 2.66177C27.9775 2.62103 28.8738 2.59387 29.9195 2.60745L31.8344 2.64819L31.8751 3.28647ZM31.8751 20.0584L31.9159 22.0004H31.2232H30.5442V23.2906C30.5442 24.54 30.5306 24.5807 30.2183 24.6622C30.0417 24.7029 29.743 24.7165 29.58 24.6893C29.2677 24.6486 29.2541 24.5943 29.2133 23.3177L29.1726 22.0004H28.5071H27.8281V20.1263C27.8281 19.0942 27.8689 18.1979 27.9232 18.1435C27.9775 18.1028 28.8738 18.0756 29.9195 18.0892L31.8344 18.13L31.8751 20.0584Z" fill="white"/>
</svg>
