<svg width="40" height="40" viewBox="0 0 40 40" fill="none" xmlns="http://www.w3.org/2000/svg">
<path d="M19.9219 0C15.9817 0 12.13 1.1684 8.85388 3.35744C5.57775 5.54648 3.02431 8.65786 1.51647 12.2981C0.0086315 15.9384 -0.385888 19.944 0.382802 23.8084C1.15149 27.6729 3.04887 31.2226 5.83499 34.0088C8.62112 36.7949 12.1709 38.6923 16.0353 39.461C19.8998 40.2296 23.9054 39.8351 27.5457 38.3273C31.1859 36.8194 34.2973 34.266 36.4863 30.9899C38.6754 27.7137 39.8438 23.862 39.8438 19.9219C39.8376 14.6402 37.7367 9.57657 34.0019 5.84183C30.2672 2.1071 25.2036 0.00620283 19.9219 0ZM35.8535 12.5H27.9668C27.0267 8.87672 25.3122 5.50034 22.9414 2.60352C25.7301 3.09523 28.3594 4.25126 30.6069 5.97385C32.8543 7.69644 34.654 9.93493 35.8535 12.5ZM37.5 19.9219C37.5013 21.6421 37.2493 23.3532 36.752 25H28.4785C29.0488 21.6386 29.0488 18.2051 28.4785 14.8438H36.752C37.2493 16.4906 37.5013 18.2016 37.5 19.9219ZM19.9219 37.0762C18.7936 35.9252 17.7984 34.6509 16.9551 33.2773C15.8171 31.4261 14.9328 29.4304 14.3262 27.3438H25.5176C24.9109 29.4304 24.0267 31.4261 22.8887 33.2773C22.0454 34.6509 21.0502 35.9252 19.9219 37.0762ZM13.7598 25C13.1217 21.6446 13.1217 18.1991 13.7598 14.8438H26.084C26.722 18.1991 26.722 21.6446 26.084 25H13.7598ZM2.34376 19.9219C2.34244 18.2016 2.5945 16.4906 3.09181 14.8438H11.3652C10.7949 18.2051 10.7949 21.6386 11.3652 25H3.09181C2.5945 23.3532 2.34244 21.6421 2.34376 19.9219ZM19.9219 2.76758C21.0502 3.91856 22.0454 5.19285 22.8887 6.56641C24.0267 8.41764 24.9109 10.4133 25.5176 12.5H14.3262C14.9328 10.4133 15.8171 8.41764 16.9551 6.56641C17.7984 5.19285 18.7936 3.91856 19.9219 2.76758ZM16.9024 2.60352C14.5316 5.50034 12.8171 8.87672 11.877 12.5H3.99024C5.1898 9.93493 6.98942 7.69644 9.23691 5.97385C11.4844 4.25126 14.1137 3.09523 16.9024 2.60352ZM3.99024 27.3438H11.877C12.8171 30.967 14.5316 34.3434 16.9024 37.2402C14.1137 36.7485 11.4844 35.5925 9.23691 33.8699C6.98942 32.1473 5.1898 29.9088 3.99024 27.3438ZM22.9356 37.2402C25.3084 34.3439 27.0249 30.9675 27.9668 27.3438H35.8535C34.654 29.9088 32.8543 32.1473 30.6069 33.8699C28.3594 35.5925 25.7301 36.7485 22.9414 37.2402H22.9356Z" fill="white"/>
</svg>
