<svg width="50" height="50" viewBox="0 0 50 50" fill="none" xmlns="http://www.w3.org/2000/svg">
<path d="M42.1875 16.0156H35.5469V9.375C35.5469 8.6498 35.2588 7.9543 34.746 7.44151C34.2332 6.92871 33.5377 6.64062 32.8125 6.64062H7.8125C7.0873 6.64062 6.3918 6.92871 5.87901 7.44151C5.36621 7.9543 5.07813 8.6498 5.07812 9.375V34.375C5.07838 34.5962 5.14125 34.8128 5.25945 34.9998C5.37766 35.1868 5.54637 35.3365 5.74609 35.4316C5.90308 35.508 6.07544 35.5474 6.25 35.5469C6.51792 35.547 6.7778 35.4553 6.98633 35.2871L14.3965 29.2969H14.4531V35.9375C14.4531 36.6627 14.7412 37.3582 15.254 37.871C15.7668 38.3838 16.4623 38.6719 17.1875 38.6719H35.6035L43.0137 44.6621C43.2222 44.8303 43.4821 44.922 43.75 44.9219C43.9246 44.9224 44.0969 44.883 44.2539 44.8066C44.4536 44.7115 44.6223 44.5618 44.7405 44.3748C44.8587 44.1878 44.9216 43.9712 44.9219 43.75V18.75C44.9219 18.0248 44.6338 17.3293 44.121 16.8165C43.6082 16.3037 42.9127 16.0156 42.1875 16.0156ZM13.9805 26.9531C13.7125 26.953 13.4527 27.0447 13.2441 27.2129L7.42188 31.9199V9.375C7.42188 9.2714 7.46303 9.17204 7.53629 9.09879C7.60954 9.02553 7.7089 8.98438 7.8125 8.98438H32.8125C32.9161 8.98438 33.0155 9.02553 33.0887 9.09879C33.162 9.17204 33.2031 9.2714 33.2031 9.375V26.5625C33.2031 26.6661 33.162 26.7655 33.0887 26.8387C33.0155 26.912 32.9161 26.9531 32.8125 26.9531H13.9805ZM42.5781 41.2949L36.7559 36.5879C36.5473 36.4197 36.2875 36.328 36.0195 36.3281H17.1875C17.0839 36.3281 16.9845 36.287 16.9113 36.2137C16.838 36.1405 16.7969 36.0411 16.7969 35.9375V29.2969H32.8125C33.5377 29.2969 34.2332 29.0088 34.746 28.496C35.2588 27.9832 35.5469 27.2877 35.5469 26.5625V18.3594H42.1875C42.2911 18.3594 42.3905 18.4005 42.4637 18.4738C42.537 18.547 42.5781 18.6464 42.5781 18.75V41.2949Z" fill="white"/>
</svg>
