<svg width="30" height="39" viewBox="0 0 30 39" fill="none" xmlns="http://www.w3.org/2000/svg">
<path d="M13.3137 31.0879C14.0947 31.8689 15.3611 31.8689 16.1421 31.0879L28.87 18.36C29.6511 17.5789 29.6511 16.3126 28.87 15.5315C28.089 14.7505 26.8227 14.7505 26.0416 15.5315L14.7279 26.8453L3.4142 15.5315C2.63315 14.7505 1.36682 14.7505 0.58577 15.5315C-0.195279 16.3126 -0.195279 17.5789 0.58577 18.36L13.3137 31.0879ZM16.7279 2C16.7279 0.895431 15.8325 0 14.7279 0C13.6233 0 12.7279 0.895431 12.7279 2H14.7279L16.7279 2ZM14.7279 20.9346H12.7279V29.6737H14.7279H16.7279V20.9346H14.7279ZM14.7279 2H12.7279V13.6521H14.7279H16.7279V2L14.7279 2ZM14.7279 13.6521H12.7279L12.7279 20.9346H14.7279H16.7279V13.6521H14.7279Z" fill="white"/>
<line x1="2.8103" y1="36.5597" x2="27.484" y2="36.5597" stroke="white" stroke-width="3" stroke-linecap="round"/>
</svg>
