<svg width="37" height="29" viewBox="0 0 37 29" fill="none" xmlns="http://www.w3.org/2000/svg">
<path d="M32.3438 0H4.21875C3.09987 0 2.02681 0.444474 1.23564 1.23564C0.444474 2.02681 0 3.09987 0 4.21875V23.9062C0 25.0251 0.444474 26.0982 1.23564 26.8894C2.02681 27.6805 3.09987 28.125 4.21875 28.125H32.3438C33.4626 28.125 34.5357 27.6805 35.3269 26.8894C36.118 26.0982 36.5625 25.0251 36.5625 23.9062V4.21875C36.5625 3.09987 36.118 2.02681 35.3269 1.23564C34.5357 0.444474 33.4626 0 32.3438 0ZM2.8125 8.4375H33.75V11.25H23.9062C23.5333 11.25 23.1756 11.3982 22.9119 11.6619C22.6482 11.9256 22.5 12.2833 22.5 12.6562C22.5 13.7751 22.0555 14.8482 21.2644 15.6394C20.4732 16.4305 19.4001 16.875 18.2812 16.875C17.1624 16.875 16.0893 16.4305 15.2981 15.6394C14.507 14.8482 14.0625 13.7751 14.0625 12.6562C14.0625 12.2833 13.9143 11.9256 13.6506 11.6619C13.3869 11.3982 13.0292 11.25 12.6562 11.25H2.8125V8.4375ZM4.21875 2.8125H32.3438C32.7167 2.8125 33.0744 2.96066 33.3381 3.22438C33.6018 3.4881 33.75 3.84579 33.75 4.21875V5.625H2.8125V4.21875C2.8125 3.84579 2.96066 3.4881 3.22438 3.22438C3.4881 2.96066 3.84579 2.8125 4.21875 2.8125ZM32.3438 25.3125H4.21875C3.84579 25.3125 3.4881 25.1643 3.22438 24.9006C2.96066 24.6369 2.8125 24.2792 2.8125 23.9062V14.0625H11.3906C11.7134 15.652 12.5757 17.081 13.8315 18.1074C15.0873 19.1338 16.6593 19.6945 18.2812 19.6945C19.9032 19.6945 21.4752 19.1338 22.731 18.1074C23.9868 17.081 24.8491 15.652 25.1719 14.0625H33.75V23.9062C33.75 24.2792 33.6018 24.6369 33.3381 24.9006C33.0744 25.1643 32.7167 25.3125 32.3438 25.3125Z" fill="#22D3EE"/>
</svg>
