<svg width="40" height="40" viewBox="0 0 40 40" fill="none" xmlns="http://www.w3.org/2000/svg">
<g clip-path="url(#clip0_419_8779)">
<path d="M20 0C23.9556 0 27.8224 1.17298 31.1114 3.37061C34.4004 5.56824 36.9638 8.69181 38.4776 12.3463C39.9913 16.0009 40.3874 20.0222 39.6157 23.9018C38.844 27.7814 36.9392 31.3451 34.1421 34.1421C31.3451 36.9392 27.7814 38.844 23.9018 39.6157C20.0222 40.3874 16.0009 39.9913 12.3463 38.4776C8.69181 36.9638 5.56824 34.4004 3.37061 31.1114C1.17298 27.8224 0 23.9556 0 20C0 14.6957 2.10714 9.60859 5.85786 5.85786C9.60859 2.10714 14.6957 0 20 0Z" fill="#F3B724"/>
<path d="M18.2098 8V11.1668H12.9231V14.9822H21.1261L12.9231 25.8302V28.7022H18.2098V31.8486H21.4585V28.7022H26.7446V24.8868H18.5421L26.7446 14.0388V11.1668H21.4585V8H18.2098Z" fill="white"/>
</g>
<defs>
<clipPath id="clip0_419_8779">
<rect width="40" height="40" fill="white"/>
</clipPath>
</defs>
</svg>
