<svg width="40" height="38" viewBox="0 0 40 38" fill="none" xmlns="http://www.w3.org/2000/svg">
<path d="M20.3137 9.36553V17.8558L27.3684 22.0882C27.7237 22.3016 27.9797 22.6474 28.0801 23.0496C28.1804 23.4518 28.1169 23.8774 27.9035 24.2327C27.6901 24.5881 27.3443 24.8441 26.9421 24.9444C26.5399 25.0448 26.1143 24.9813 25.759 24.7679L17.9465 20.0804C17.7153 19.9415 17.5239 19.745 17.3911 19.5102C17.2583 19.2755 17.1886 19.0103 17.1887 18.7405V9.36553C17.1887 8.95113 17.3533 8.5537 17.6463 8.26068C17.9393 7.96765 18.3368 7.80303 18.7512 7.80303C19.1656 7.80303 19.563 7.96765 19.856 8.26068C20.149 8.5537 20.3137 8.95113 20.3137 9.36553ZM37.5012 4.67803C37.0868 4.67803 36.6893 4.84265 36.3963 5.13568C36.1033 5.4287 35.9387 5.82613 35.9387 6.24053V9.75615C34.6984 8.31865 33.4328 6.93389 32.009 5.49248C29.4032 2.88644 26.0873 1.10607 22.4754 0.373839C18.8636 -0.358394 15.1161 -0.0100218 11.7011 1.37543C8.28618 2.76087 5.35522 5.12196 3.27448 8.16366C1.19374 11.2054 0.055499 14.7928 0.00197817 18.4777C-0.0515427 22.1626 0.982031 25.7816 2.97355 28.8824C4.96507 31.9833 7.82623 34.4285 11.1995 35.9125C14.5728 37.3966 18.3086 37.8536 21.9402 37.2266C25.5717 36.5996 28.938 34.9163 31.6184 32.387C31.7676 32.2459 31.8877 32.0769 31.9716 31.8894C32.0555 31.7019 32.1017 31.4998 32.1075 31.2945C32.1133 31.0892 32.0786 30.8847 32.0054 30.6928C31.9322 30.501 31.8219 30.3254 31.6809 30.1761C31.5398 30.0268 31.3707 29.9068 31.1832 29.8228C30.9958 29.7389 30.7936 29.6927 30.5883 29.6869C30.383 29.6811 30.1786 29.7158 29.9867 29.789C29.7948 29.8622 29.6192 29.9725 29.4699 30.1136C27.2356 32.2192 24.4305 33.6199 21.4049 34.1409C18.3793 34.6618 15.2673 34.2799 12.4574 33.0427C9.6476 31.8056 7.26449 29.7681 5.60569 27.1847C3.94689 24.6013 3.08592 21.5864 3.1303 18.5166C3.17467 15.4468 4.12243 12.4581 5.85521 9.92368C7.588 7.38929 10.029 5.42153 12.8734 4.26614C15.7179 3.11074 18.8396 2.81892 21.8489 3.4271C24.8582 4.03528 27.6216 5.51652 29.7941 7.68584C31.384 9.29522 32.7766 10.846 34.1809 12.4905H29.6887C29.2743 12.4905 28.8768 12.6552 28.5838 12.9482C28.2908 13.2412 28.1262 13.6386 28.1262 14.053C28.1262 14.4674 28.2908 14.8649 28.5838 15.1579C28.8768 15.4509 29.2743 15.6155 29.6887 15.6155H37.5012C37.9156 15.6155 38.313 15.4509 38.606 15.1579C38.899 14.8649 39.0637 14.4674 39.0637 14.053V6.24053C39.0637 5.82613 38.899 5.4287 38.606 5.13568C38.313 4.84265 37.9156 4.67803 37.5012 4.67803Z" fill="white"/>
</svg>
