<svg width="50" height="50" viewBox="0 0 50 50" fill="none" xmlns="http://www.w3.org/2000/svg">
<path d="M14.2578 0C21.3477 0 28.4375 0 35.7422 0C35.7422 1.16016 35.7422 2.32031 35.7422 3.51562C36.9346 3.51562 38.127 3.51562 39.3555 3.51562C39.3555 4.70801 39.3555 5.90039 39.3555 7.12891C40.5156 7.12891 41.6758 7.12891 42.8711 7.12891C42.8711 8.28906 42.8711 9.44922 42.8711 10.6445C44.0635 10.6445 45.2559 10.6445 46.4844 10.6445C46.4844 12.9971 46.4844 15.3496 46.4844 17.7734C47.6445 17.7734 48.8047 17.7734 50 17.7734C50 27.248 50 36.7227 50 46.4844C48.8398 46.4844 47.6797 46.4844 46.4844 46.4844C46.4844 47.6445 46.4844 48.8047 46.4844 50C44.0996 50 41.7148 50 39.2578 50C39.2578 48.8398 39.2578 47.6797 39.2578 46.4844C38.0654 46.4844 36.873 46.4844 35.6445 46.4844C35.6445 45.292 35.6445 44.0996 35.6445 42.8711C34.5166 42.8711 33.3887 42.8711 32.2266 42.8711C32.2266 44.0635 32.2266 45.2559 32.2266 46.4844C31.0342 46.4844 29.8418 46.4844 28.6133 46.4844C28.6133 47.6445 28.6133 48.8047 28.6133 50C26.2285 50 23.8438 50 21.3867 50C21.3867 48.8398 21.3867 47.6797 21.3867 46.4844C20.1943 46.4844 19.002 46.4844 17.7734 46.4844C17.7734 45.292 17.7734 44.0996 17.7734 42.8711C16.6455 42.8711 15.5176 42.8711 14.3555 42.8711C14.3555 44.0635 14.3555 45.2559 14.3555 46.4844C13.1631 46.4844 11.9707 46.4844 10.7422 46.4844C10.7422 47.6445 10.7422 48.8047 10.7422 50C8.35742 50 5.97266 50 3.51562 50C3.51562 48.8398 3.51562 47.6797 3.51562 46.4844C2.35547 46.4844 1.19531 46.4844 0 46.4844C0 37.0098 0 27.5352 0 17.7734C1.16016 17.7734 2.32031 17.7734 3.51562 17.7734C3.51562 15.4209 3.51562 13.0684 3.51562 10.6445C4.70801 10.6445 5.90039 10.6445 7.12891 10.6445C7.12891 9.48438 7.12891 8.32422 7.12891 7.12891C8.28906 7.12891 9.44922 7.12891 10.6445 7.12891C10.6445 5.93652 10.6445 4.74414 10.6445 3.51562C11.8369 3.51562 13.0293 3.51562 14.2578 3.51562C14.2578 2.35547 14.2578 1.19531 14.2578 0Z" fill="#22D3EE"/>
<path d="M35.7422 10.7422C38.0947 10.7422 40.4473 10.7422 42.8711 10.7422C42.8711 11.9023 42.8711 13.0625 42.8711 14.2578C44.0635 14.2578 45.2559 14.2578 46.4844 14.2578C46.4954 16.7263 46.4706 19.1932 46.4355 21.6614C46.4338 21.7846 46.4338 21.7846 46.432 21.9103C46.4173 22.9402 46.4021 23.9701 46.3867 25C45.2266 25 44.0664 25 42.8711 25C42.8711 23.8076 42.8711 22.6152 42.8711 21.3867C40.4863 21.3867 38.1016 21.3867 35.6445 21.3867C35.6445 22.5791 35.6445 23.7715 35.6445 25C34.4844 25 33.3242 25 32.1289 25C32.1289 21.4551 32.1289 17.9102 32.1289 14.2578C33.3213 14.2578 34.5137 14.2578 35.7422 14.2578C35.7422 13.0977 35.7422 11.9375 35.7422 10.7422Z" fill="#FEFEFE"/>
<path d="M14.2578 10.7422C16.6426 10.7422 19.0273 10.7422 21.4844 10.7422C21.4844 11.9023 21.4844 13.0625 21.4844 14.2578C22.6445 14.2578 23.8047 14.2578 25 14.2578C25 17.8027 25 21.3477 25 25C23.8398 25 22.6797 25 21.4844 25C21.4844 23.8076 21.4844 22.6152 21.4844 21.3867C19.0996 21.3867 16.7148 21.3867 14.2578 21.3867C14.2578 22.5791 14.2578 23.7715 14.2578 25C13.0977 25 11.9375 25 10.7422 25C10.7422 21.4551 10.7422 17.9102 10.7422 14.2578C11.9023 14.2578 13.0625 14.2578 14.2578 14.2578C14.2578 13.0977 14.2578 11.9375 14.2578 10.7422Z" fill="#FEFEFE"/>
<path d="M14.2578 21.3867C16.6426 21.3867 19.0273 21.3867 21.4844 21.3867C21.4844 23.7715 21.4844 26.1562 21.4844 28.6133C19.0996 28.6133 16.7148 28.6133 14.2578 28.6133C14.2578 26.2285 14.2578 23.8438 14.2578 21.3867Z" fill="#366A91"/>
<path d="M35.6446 21.3867C38.0293 21.3867 40.4141 21.3867 42.8711 21.3867C42.8711 23.7715 42.8711 26.1562 42.8711 28.6133C40.5186 28.6133 38.1661 28.6133 35.7422 28.6133C35.7261 28.0916 35.71 27.5699 35.6934 27.0325C35.6883 26.8767 35.6832 26.721 35.6779 26.5605C35.6282 24.8344 35.6446 23.1165 35.6446 21.3867Z" fill="#366A92"/>
</svg>
