<svg width="40" height="40" viewBox="0 0 40 40" fill="none" xmlns="http://www.w3.org/2000/svg">
<path d="M19.9219 0C15.9817 0 12.13 1.1684 8.85388 3.35744C5.57775 5.54648 3.02431 8.65786 1.51647 12.2981C0.0086315 15.9384 -0.385888 19.944 0.382802 23.8084C1.15149 27.6729 3.04887 31.2226 5.83499 34.0088C8.62112 36.7949 12.1709 38.6923 16.0353 39.461C19.8998 40.2296 23.9054 39.8351 27.5457 38.3273C31.1859 36.8194 34.2973 34.266 36.4863 30.9899C38.6754 27.7137 39.8438 23.862 39.8438 19.9219C39.8376 14.6402 37.7367 9.57657 34.0019 5.84183C30.2672 2.1071 25.2036 0.00620283 19.9219 0ZM8.87501 33.5938C10.0211 31.688 11.6407 30.1112 13.5764 29.0165C15.5121 27.9218 17.6981 27.3465 19.9219 27.3465C22.1457 27.3465 24.3317 27.9218 26.2674 29.0165C28.2031 30.1112 29.8227 31.688 30.9688 33.5938C27.8445 36.1272 23.9443 37.5098 19.9219 37.5098C15.8995 37.5098 11.9993 36.1272 8.87501 33.5938ZM13.2813 18.3594C13.2813 17.046 13.6707 15.7621 14.4004 14.67C15.1301 13.578 16.1672 12.7269 17.3806 12.2242C18.594 11.7216 19.9293 11.5901 21.2174 11.8463C22.5056 12.1026 23.6888 12.735 24.6175 13.6637C25.5462 14.5925 26.1787 15.7757 26.4349 17.0639C26.6911 18.352 26.5596 19.6872 26.057 20.9006C25.5544 22.114 24.7033 23.1512 23.6112 23.8809C22.5192 24.6105 21.2353 25 19.9219 25C18.1607 25 16.4716 24.3004 15.2263 23.055C13.9809 21.8096 13.2813 20.1206 13.2813 18.3594ZM32.7168 31.9609C30.8755 29.0979 28.1233 26.9388 24.9043 25.832C26.5094 24.7629 27.728 23.2057 28.3797 21.3905C29.0314 19.5754 29.0817 17.5987 28.5233 15.7528C27.9648 13.9068 26.8271 12.2895 25.2785 11.1401C23.7298 9.99069 21.8524 9.37009 19.9238 9.37009C17.9952 9.37009 16.1178 9.99069 14.5692 11.1401C13.0206 12.2895 11.8829 13.9068 11.3244 15.7528C10.7659 17.5987 10.8163 19.5754 11.468 21.3905C12.1197 23.2057 13.3382 24.7629 14.9434 25.832C11.7244 26.9388 8.97214 29.0979 7.13087 31.9609C4.77702 29.4631 3.20592 26.3307 2.61142 22.9504C2.01691 19.5701 2.42502 16.0896 3.78537 12.9385C5.14573 9.78743 7.39882 7.1035 10.2667 5.2179C13.1345 3.33229 16.4916 2.32751 19.9238 2.32751C23.356 2.32751 26.7132 3.33229 29.581 5.2179C32.4489 7.1035 34.7019 9.78743 36.0623 12.9385C37.4227 16.0896 37.8308 19.5701 37.2363 22.9504C36.6418 26.3307 35.0707 29.4631 32.7168 31.9609Z" fill="white"/>
</svg>
