<svg width="32" height="32" viewBox="0 0 32 32" fill="none" xmlns="http://www.w3.org/2000/svg">
<path d="M28.86 14.4613L7.85996 2.47627C7.54975 2.30437 7.19463 2.23078 6.84165 2.26524C6.48867 2.29971 6.1545 2.44062 5.8834 2.66928C5.61231 2.89795 5.41709 3.20359 5.32361 3.54571C5.23013 3.88783 5.24281 4.25027 5.35996 4.58502L9.20746 16L5.35121 27.4163C5.25784 27.6802 5.22913 27.9626 5.26749 28.2399C5.30585 28.5171 5.41017 28.7812 5.57169 29.0098C5.7332 29.2384 5.9472 29.4249 6.19572 29.5537C6.44425 29.6826 6.72004 29.7499 6.99996 29.75C7.30356 29.7494 7.60188 29.6706 7.86621 29.5213L28.855 17.5125C29.1258 17.3603 29.3512 17.1388 29.5081 16.8707C29.665 16.6026 29.7477 16.2975 29.7477 15.9869C29.7477 15.6763 29.665 15.3712 29.5081 15.1031C29.3512 14.835 29.1258 14.6135 28.855 14.4613H28.86ZM28.1162 16.2113L7.12496 28.2163C7.08053 28.2412 7.02956 28.2519 6.97886 28.247C6.92817 28.2421 6.88018 28.2219 6.8413 28.189C6.80242 28.1561 6.77452 28.1121 6.76133 28.0629C6.74813 28.0138 6.75027 27.9617 6.76746 27.9138C6.76796 27.9096 6.76796 27.9054 6.76746 27.9013L10.5375 16.75H18C18.1989 16.75 18.3896 16.671 18.5303 16.5304C18.6709 16.3897 18.75 16.1989 18.75 16C18.75 15.8011 18.6709 15.6103 18.5303 15.4697C18.3896 15.329 18.1989 15.25 18 15.25H10.5375L6.77121 4.10002C6.77191 4.09588 6.77191 4.09166 6.77121 4.08752C6.75163 4.03983 6.74838 3.987 6.76194 3.93727C6.77551 3.88753 6.80513 3.84367 6.84621 3.81252C6.88283 3.77749 6.92994 3.75545 6.9803 3.74981C7.03067 3.74416 7.08149 3.75522 7.12496 3.78127L28.125 15.7675C28.1637 15.7888 28.1959 15.8204 28.218 15.8587C28.24 15.8971 28.2511 15.9408 28.25 15.985C28.2502 16.0308 28.2378 16.0758 28.2142 16.115C28.1906 16.1542 28.1567 16.1862 28.1162 16.2075V16.2113Z" fill="white"/>
</svg>
