<svg width="42" height="42" viewBox="0 0 42 42" fill="none" xmlns="http://www.w3.org/2000/svg">
<g clip-path="url(#clip0_198_2725)">
<path d="M20.3211 21.5093L12.8081 29.0223M13.58 30.2201L16.0466 35.1692C17.3974 37.8797 18.0729 39.235 18.942 39.6163C19.6969 39.9475 20.5635 39.9042 21.2817 39.4995C22.1086 39.0334 22.6456 37.6175 23.7197 34.7859L30.6055 16.6323C31.6539 13.8683 32.1782 12.4864 31.8769 11.5961C31.6152 10.8225 31.0078 10.2151 30.2342 9.95343C29.344 9.65224 27.962 10.1764 25.198 11.2248L7.01315 18.1226C4.19002 19.1934 2.77846 19.7288 2.31233 20.5544C1.90751 21.2713 1.86316 22.1368 2.19259 22.8914C2.57191 23.7602 3.92135 24.4371 6.62025 25.7909L11.7072 28.3425C12.1707 28.575 12.4026 28.6913 12.6032 28.8464C12.7815 28.9842 12.9411 29.1443 13.0784 29.3228C13.233 29.5239 13.3486 29.7559 13.58 30.2201Z" stroke="white" stroke-width="3" stroke-linecap="round" stroke-linejoin="round"/>
</g>
<defs>
<clipPath id="clip0_198_2725">
<rect width="41.9298" height="41.9298" fill="white"/>
</clipPath>
</defs>
</svg>
