<svg width="25" height="25" viewBox="0 0 25 25" fill="none" xmlns="http://www.w3.org/2000/svg">
<path d="M3.90625 8.39844H7.28516C7.41964 9.06072 7.77894 9.65615 8.30219 10.0838C8.82544 10.5115 9.48046 10.7451 10.1562 10.7451C10.832 10.7451 11.4871 10.5115 12.0103 10.0838C12.5336 9.65615 12.8929 9.06072 13.0273 8.39844H21.0938C21.2492 8.39844 21.3982 8.33671 21.5081 8.22683C21.618 8.11694 21.6797 7.96791 21.6797 7.81251C21.6797 7.65711 21.618 7.50807 21.5081 7.39819C21.3982 7.2883 21.2492 7.22657 21.0938 7.22657H13.0273C12.8929 6.56429 12.5336 5.96887 12.0103 5.54119C11.4871 5.11351 10.832 4.87988 10.1562 4.87988C9.48046 4.87988 8.82544 5.11351 8.30219 5.54119C7.77894 5.96887 7.41964 6.56429 7.28516 7.22657H3.90625C3.75085 7.22657 3.60181 7.2883 3.49193 7.39819C3.38204 7.50807 3.32031 7.65711 3.32031 7.81251C3.32031 7.96791 3.38204 8.11694 3.49193 8.22683C3.60181 8.33671 3.75085 8.39844 3.90625 8.39844ZM10.1562 6.05469C10.5039 6.05469 10.8438 6.15779 11.1328 6.35094C11.4219 6.54409 11.6472 6.81862 11.7803 7.13982C11.9133 7.46102 11.9481 7.81446 11.8803 8.15544C11.8125 8.49642 11.645 8.80963 11.3992 9.05547C11.1534 9.3013 10.8402 9.46872 10.4992 9.53654C10.1582 9.60437 9.80476 9.56956 9.48356 9.43651C9.16237 9.30347 8.88783 9.07817 8.69468 8.7891C8.50153 8.50003 8.39844 8.16017 8.39844 7.81251C8.39844 7.34631 8.58364 6.8992 8.91329 6.56955C9.24294 6.23989 9.69005 6.05469 10.1562 6.05469ZM21.0938 16.6016H19.2773C19.1429 15.9393 18.7836 15.3439 18.2603 14.9162C17.7371 14.4885 17.082 14.2549 16.4062 14.2549C15.7305 14.2549 15.0754 14.4885 14.5522 14.9162C14.0289 15.3439 13.6696 15.9393 13.5352 16.6016H3.90625C3.75085 16.6016 3.60181 16.6633 3.49193 16.7732C3.38204 16.8831 3.32031 17.0321 3.32031 17.1875C3.32031 17.3429 3.38204 17.4919 3.49193 17.6018C3.60181 17.7117 3.75085 17.7734 3.90625 17.7734H13.5352C13.6696 18.4357 14.0289 19.0311 14.5522 19.4588C15.0754 19.8865 15.7305 20.1201 16.4062 20.1201C17.082 20.1201 17.7371 19.8865 18.2603 19.4588C18.7836 19.0311 19.1429 18.4357 19.2773 17.7734H21.0938C21.2492 17.7734 21.3982 17.7117 21.5081 17.6018C21.618 17.4919 21.6797 17.3429 21.6797 17.1875C21.6797 17.0321 21.618 16.8831 21.5081 16.7732C21.3982 16.6633 21.2492 16.6016 21.0938 16.6016ZM16.4062 18.9453C16.0586 18.9453 15.7187 18.8422 15.4297 18.6491C15.1406 18.4559 14.9153 18.1814 14.7822 17.8602C14.6492 17.539 14.6144 17.1856 14.6822 16.8446C14.75 16.5036 14.9175 16.1904 15.1633 15.9445C15.4091 15.6987 15.7223 15.5313 16.0633 15.4635C16.4043 15.3956 16.7577 15.4305 17.0789 15.5635C17.4001 15.6965 17.6747 15.9218 17.8678 16.2109C18.061 16.5 18.1641 16.8398 18.1641 17.1875C18.1641 17.6537 17.9789 18.1008 17.6492 18.4305C17.3196 18.7601 16.8725 18.9453 16.4062 18.9453Z" fill="white"/>
</svg>
