<svg width="33" height="27" viewBox="0 0 33 27" fill="none" xmlns="http://www.w3.org/2000/svg">
<path d="M5.35062 20.8567C5.54934 20.6633 5.82259 20.5504 6.11239 20.5504H32.3935C32.8737 20.5504 33.1138 21.1146 32.7743 21.4451L27.5827 26.4986C27.384 26.6921 27.1108 26.8049 26.8209 26.8049H0.539876C0.0596299 26.8049 -0.180493 26.2407 0.158991 25.9103L5.35062 20.8567Z" fill="#22D3EE"/>
<path d="M5.35062 0.306275C5.55762 0.112838 5.83087 0 6.11239 0C6.11239 0 22.1301 0 32.3935 0C32.8737 0 33.1138 0.56419 32.7743 0.894644C30.7469 2.86817 27.5827 5.94818 27.5827 5.94818C27.384 6.14161 27.1107 6.25445 26.8209 6.25445H0.539876C0.0596299 6.25445 -0.180493 5.69026 0.158991 5.35981L5.35062 0.306275Z" fill="#22D3EE"/>
<path d="M27.5827 10.1785C27.384 9.95745 27.1108 9.82849 26.8209 9.82849H0.539876C0.0596299 9.82849 -0.180493 10.4733 0.158991 10.8509L5.35062 16.6264C5.54934 16.8475 5.82259 16.9764 6.11239 16.9764H32.3935C32.8737 16.9764 33.1138 16.3316 32.7743 15.954L27.5827 10.1785Z" fill="#22D3EE"/>
</svg>
