<svg width="49" height="49" viewBox="0 0 49 49" fill="none" xmlns="http://www.w3.org/2000/svg">
<path d="M46.7727 17.8182V13.3636H44.5455V8.90909H42.3182V6.68182H40.0909V4.45455H35.6364V2.22727H31.1818V0H17.8182V2.22727H13.3636V4.45455H8.90909V6.68182H6.68182V8.90909H4.45455V13.3636H2.22727V17.8182H0V33.4091H2.22727V35.6364H4.45455V40.0909H6.68182V42.3182H8.90909V44.5455H13.3636V46.7727H17.8182V49H31.1818V46.7727H35.6364V44.5455H40.0909V42.3182H42.3182V40.0909H44.5455V35.6364H46.7727V31.1818H49V17.8182H46.7727ZM44.5455 20.0455V28.9545H37.8636V20.0455H44.5455ZM33.4091 6.68182H35.6364V8.90909H40.0909V13.3636H42.3182V15.5909H35.6364V8.90909H33.4091V6.68182ZM28.9545 37.8636V42.3182H26.7273V44.5455H22.2727V42.3182H20.0455V37.8636H17.8182V33.4091H31.1818V37.8636H28.9545ZM33.4091 20.0455V28.9545H15.5909V20.0455H33.4091ZM17.8182 11.1364H20.0455V6.68182H22.2727V4.45455H26.7273V6.68182H28.9545V11.1364H31.1818V15.5909H17.8182V11.1364ZM6.68182 13.3636H8.90909V8.90909H13.3636V6.68182H15.5909V8.90909H13.3636V15.5909H6.68182V13.3636ZM4.45455 28.9545V20.0455H11.1364V28.9545H4.45455ZM8.90909 40.0909V35.6364H6.68182V33.4091H13.3636V40.0909H15.5909V42.3182H13.3636V40.0909H8.90909ZM40.0909 35.6364V40.0909H35.6364V42.3182H33.4091V40.0909H35.6364V33.4091H42.3182V35.6364H40.0909Z" fill="white"/>
</svg>
