<svg width="39" height="34" viewBox="0 0 39 34" fill="none" xmlns="http://www.w3.org/2000/svg">
<path d="M35.5469 6.25H4.29688C3.77887 6.25 3.28209 6.04422 2.91581 5.67794C2.54953 5.31166 2.34375 4.81488 2.34375 4.29688C2.34375 3.77887 2.54953 3.28209 2.91581 2.91581C3.28209 2.54953 3.77887 2.34375 4.29688 2.34375H30.8594C31.1702 2.34375 31.4682 2.22029 31.688 2.00052C31.9078 1.78075 32.0312 1.48268 32.0312 1.17188C32.0312 0.861074 31.9078 0.563003 31.688 0.343234C31.4682 0.123465 31.1702 0 30.8594 0H4.29688C3.15727 0 2.06435 0.452705 1.25853 1.25853C0.452705 2.06435 0 3.15727 0 4.29688V29.2969C0 30.4365 0.452705 31.5294 1.25853 32.3352C2.06435 33.141 3.15727 33.5938 4.29688 33.5938H35.5469C36.2721 33.5938 36.9676 33.3057 37.4804 32.7929C37.9932 32.2801 38.2812 31.5846 38.2812 30.8594V8.98438C38.2812 8.25917 37.9932 7.56367 37.4804 7.05088C36.9676 6.53808 36.2721 6.25 35.5469 6.25ZM35.9375 30.8594C35.9375 30.963 35.8963 31.0623 35.8231 31.1356C35.7498 31.2088 35.6505 31.25 35.5469 31.25H4.29688C3.77887 31.25 3.28209 31.0442 2.91581 30.6779C2.54953 30.3117 2.34375 29.8149 2.34375 29.2969V8.12305C2.94803 8.43321 3.61764 8.59459 4.29688 8.59375H35.5469C35.6505 8.59375 35.7498 8.6349 35.8231 8.70816C35.8963 8.78142 35.9375 8.88077 35.9375 8.98438V30.8594ZM30.4688 19.1406C30.4688 19.5269 30.3542 19.9045 30.1396 20.2257C29.925 20.5469 29.6199 20.7973 29.2631 20.9451C28.9062 21.0929 28.5135 21.1316 28.1346 21.0562C27.7557 20.9809 27.4077 20.7948 27.1346 20.5217C26.8614 20.2485 26.6754 19.9005 26.6 19.5217C26.5247 19.1428 26.5633 18.7501 26.7112 18.3932C26.859 18.0363 27.1093 17.7313 27.4305 17.5167C27.7517 17.302 28.1293 17.1875 28.5156 17.1875C29.0336 17.1875 29.5304 17.3933 29.8967 17.7596C30.263 18.1258 30.4688 18.6226 30.4688 19.1406Z" fill="white"/>
</svg>
